<svg width="121" height="88" viewBox="0 0 121 88" fill="none" xmlns="http://www.w3.org/2000/svg">
<path d="M120.491 38.8782L79.2102 57.472L115.274 86.4976C115.571 86.7417 115.681 87.1881 115.497 87.5536C115.348 87.8368 115.09 88 114.831 88C114.757 88 114.646 88 114.572 87.9595L57.7561 65.3468L7.30191 84.1024C6.93186 84.2238 6.56181 84.0619 6.3774 83.6965C6.19177 83.331 6.30241 82.8846 6.59869 82.6405L39.705 56.091L0.532878 42.8163C0.162831 42.6949 -0.0596889 42.2889 0.0140746 41.8425C0.0890677 41.4366 0.457885 41.1116 0.864813 41.1925L43.9218 46.6734L26.5357 7.66105C26.3513 7.29556 26.462 6.84916 26.7951 6.60505C27.0914 6.3623 27.5352 6.40276 27.7934 6.72643L49.1 31.8153C49.1 30.963 49.0631 29.9475 49.0262 28.8928C48.4337 8.7575 49.0262 1.3278 51.2453 0.51591C56.2759 -1.31151 58.8282 1.73374 59.0507 9.36574C59.1982 13.8716 59.1244 20.3667 59.0507 26.0917C58.9757 31.4498 58.9388 36.5248 59.0507 38.9605C59.0876 39.8937 59.272 40.9902 59.6789 40.9902C61.6029 40.9902 67.8175 34.0473 72.9957 27.9582C85.4986 13.3442 90.1961 10.5431 90.3805 10.4217C90.6768 10.2585 91.0468 10.299 91.305 10.5836C91.5275 10.8277 91.6013 11.2336 91.4537 11.5586L75.511 45.6579L120.084 37.2544C120.454 37.1735 120.861 37.4581 120.971 37.864C121.082 38.3104 120.861 38.7164 120.491 38.8782Z" fill="#004E28"/>
</svg>
